<svg xmlns="http://www.w3.org/2000/svg" xmlns:xlink="http://www.w3.org/1999/xlink" width="10" height="17" viewBox="0 0 10 17"><defs><path id="urvya" d="M503.34 3649.74c-.03.86.54 1.39 1.5 1.39 1.15 0 2.04-.85 2.04-1.76 0-.73-.51-1.37-1.53-1.37-1.34 0-2.01 1-2.01 1.74zm3.66 9.8l-.46-.58a4.3 4.3 0 0 1-1.8.85c-.2 0-.27-.23-.09-.9l1.06-3.74c.4-1.37.27-2.26-.54-2.26-.96 0-3.21.9-5.17 2.43l.4.61a6.36 6.36 0 0 1 1.9-.78c.2 0 .17.23 0 .8l-.92 3.56c-.56 2.01.03 2.47.83 2.47.8 0 2.89-.69 4.79-2.47z"/></defs><g><g transform="translate(-498 -3646)"><use xlink:href="#urvya"/><use xlink:href="#urvya"/></g></g></svg>