<svg xmlns="http://www.w3.org/2000/svg" xmlns:xlink="http://www.w3.org/1999/xlink" width="16" height="15" viewBox="0 0 16 15"><defs><path id="kiuga" d="M1012 3486.47c.02.2-.04.36-.18.5l-1.7 1.69a1.23 1.23 0 0 1-.66.33H1009.23a5.83 5.83 0 0 1-2.1-.48c-.52-.22-1.1-.54-1.77-.97a13.22 13.22 0 0 1-2.1-1.78 13.92 13.92 0 0 1-2.42-3.16 7.98 7.98 0 0 1-.78-2.19 3.15 3.15 0 0 1-.04-.88 1.24 1.24 0 0 1 .33-.66l1.7-1.7a.56.56 0 0 1 .4-.17c.11 0 .2.03.3.1.08.06.15.14.2.23l1.37 2.58c.07.14.1.28.06.45a.8.8 0 0 1-.21.4l-.63.62a.22.22 0 0 0-.04.09.3.3 0 0 0-.02.1c.03.17.11.37.23.6.1.2.26.45.47.75.21.29.51.63.9 1a8.44 8.44 0 0 0 1.76 1.4c.2.1.35.16.46.18l.16.03a.3.3 0 0 0 .08-.02.22.22 0 0 0 .08-.04l.73-.74c.15-.14.33-.2.53-.2.14 0 .26.02.34.07h.01l2.46 1.45c.17.11.28.25.31.42z"/></defs><g><g transform="translate(-998 -3475)"><use xlink:href="#kiuga"/><use xlink:href="#kiuga"/></g></g></svg>