<svg xmlns="http://www.w3.org/2000/svg" xmlns:xlink="http://www.w3.org/1999/xlink" width="11" height="17" viewBox="0 0 11 17"><defs><path id="34k1a" d="M1004.69 3575v-1.58c1.07-.11 1.89-.48 2.46-1.1.57-.61.85-1.38.85-2.3 0-.61-.14-1.14-.41-1.59-.28-.45-.65-.8-1.1-1.06-.47-.25-1.1-.53-1.92-.81a5.88 5.88 0 0 1-1.44-.67.92.92 0 0 1-.34-.76c0-.33.11-.61.35-.84.23-.23.54-.34.93-.34.77 0 1.33.51 1.7 1.54l1.88-.75a3.28 3.28 0 0 0-2.96-2.52V3561h-1.37v1.22c-1.01.14-1.75.52-2.22 1.14a3.38 3.38 0 0 0-.31 3.65c.26.44.6.79 1.03 1.04.42.25 1 .5 1.76.75.83.28 1.37.52 1.61.7.25.2.37.47.37.83 0 .35-.12.65-.37.9-.24.24-.62.37-1.13.37-1.1 0-1.75-.58-1.95-1.74l-2.11.54c.43 1.84 1.53 2.85 3.32 3.02v1.58z"/></defs><g><g transform="translate(-998 -3559)"><use fill="#bb0708" xlink:href="#34k1a"/><use xlink:href="#34k1a"/></g></g></svg>