<svg xmlns="http://www.w3.org/2000/svg" xmlns:xlink="http://www.w3.org/1999/xlink" width="24" height="23" viewBox="0 0 24 23"><defs><path id="n67da" d="M1520.66 44.7c-.2.2-.48.3-.76.3-.3 0-.58-.12-.78-.32l-4.97-5a8.47 8.47 0 0 1-4.8 1.47c-4.6 0-8.35-3.62-8.35-8.08 0-4.45 3.75-8.07 8.36-8.07 4.61 0 8.36 3.62 8.36 8.07 0 1.91-.7 3.74-1.96 5.2l4.93 4.95c.41.41.4 1.08-.03 1.48zm-17.48-11.63c0 3.3 2.77 5.97 6.18 5.97 3.4 0 6.18-2.67 6.18-5.97 0-3.29-2.77-5.96-6.18-5.96a6.08 6.08 0 0 0-6.18 5.96z"/></defs><g><g transform="translate(-1499 -23)"><use fill="#262d3c" xlink:href="#n67da"/></g></g></svg>