<svg xmlns="http://www.w3.org/2000/svg" xmlns:xlink="http://www.w3.org/1999/xlink" width="19" height="16" viewBox="0 0 19 16"><defs><path id="b5vqa" d="M500.5 3564.71c-.34-.41-.5-.8-.5-1.16 0-.44.12-.81.37-1.1.25-.3.6-.45 1.06-.45h13.14c.39 0 .72.13 1 .4.29.27.43.59.43.96 0 .45-.15.88-.44 1.29-.29.4-.65.76-1.09 1.05l-4.18 2.77a37.03 37.03 0 0 0-.86.58l-.46.28c-.18.1-.35.18-.51.23-.17.05-.31.08-.45.08h-.02c-.14 0-.28-.03-.45-.08a2.79 2.79 0 0 1-.5-.23 9.45 9.45 0 0 1-.96-.6l-.37-.26a419.01 419.01 0 0 0-4.17-2.77 4.34 4.34 0 0 1-1.05-.99zm15.5 1.16v6.77c0 .37-.14.7-.42.96-.28.27-.62.4-1 .4h-13.15c-.4 0-.73-.13-1.01-.4a1.28 1.28 0 0 1-.42-.96v-6.77c.26.28.56.52.9.74a179.1 179.1 0 0 1 5.27 3.5c.2.13.49.27.84.4.35.15.68.22.98.22h.02c.3 0 .63-.07.98-.21.35-.14.63-.28.84-.41a186.27 186.27 0 0 1 5.27-3.5c.35-.22.64-.47.9-.74z"/></defs><g><g transform="translate(-498 -3560)"><use xlink:href="#b5vqa"/><use xlink:href="#b5vqa"/></g></g></svg>