<svg xmlns="http://www.w3.org/2000/svg" xmlns:xlink="http://www.w3.org/1999/xlink" width="26" height="26" viewBox="0 0 26 26"><defs><path id="bz56a" d="M1357.2 40.6v4.35c0 .75-.5 1.25-1.24 1.25a21.14 21.14 0 0 1-21.16-21.16c0-.74.5-1.24 1.24-1.24h4.36c.75 0 1.24.5 1.24 1.24 0 1.5.25 2.99.63 4.36.25.37.12.87-.25 1.24l-2.74 2.74a19.37 19.37 0 0 0 8.21 8.21l2.74-2.73c.37-.25.87-.38 1.25-.25 1.49.5 2.98.74 4.48.74.74 0 1.24.5 1.24 1.25zM1346 26.29v-2.5c6.22 0 11.2 4.99 11.2 11.2h-2.49a8.66 8.66 0 0 0-8.71-8.7zm0 4.98v-2.5a6.16 6.16 0 0 1 6.22 6.23h-2.49a3.67 3.67 0 0 0-3.73-3.73z"/></defs><g><g transform="translate(-1333 -22)"><use fill="#262d3c" xlink:href="#bz56a"/></g></g></svg>